<?xml version="1.0" encoding="UTF-8"?>
<svg version="1.1" xmlns="http://www.w3.org/2000/svg" width="512" height="512">
<path d="M0 0 C1.07378444 -0.00445784 2.14756888 -0.00891569 3.25389224 -0.01350862 C5.03765593 -0.01323207 5.03765593 -0.01323207 6.85745525 -0.01294994 C8.1133704 -0.01662663 9.36928555 -0.02030332 10.66325873 -0.02409142 C14.16077329 -0.03412742 17.65827068 -0.03783078 21.1557976 -0.04048073 C24.92345355 -0.04437902 28.69109584 -0.05395764 32.4587431 -0.0626936 C41.5629397 -0.08247086 50.66713745 -0.09252554 59.77135018 -0.10142139 C64.05584777 -0.10580198 68.34034412 -0.11116936 72.62484074 -0.11641026 C86.86241207 -0.13342334 101.09998262 -0.14791853 115.33756256 -0.155159 C119.03362116 -0.15706897 122.72967976 -0.15898929 126.42573833 -0.16094494 C127.80373853 -0.16167055 127.80373853 -0.16167055 129.20957711 -0.16241082 C144.09852099 -0.17071493 158.98738463 -0.1960579 173.87629346 -0.22852562 C189.15302019 -0.2615682 204.4297061 -0.27960519 219.70646876 -0.28280324 C228.28764869 -0.28497087 236.86871159 -0.29375651 245.44985676 -0.31926441 C252.75645548 -0.34093317 260.06290875 -0.34904075 267.36953596 -0.33929763 C271.09879871 -0.33474183 274.82776112 -0.33671285 278.55698299 -0.35605907 C282.59721356 -0.37683811 286.63677322 -0.36674136 290.67703533 -0.35352612 C291.85951896 -0.36449536 293.04200259 -0.37546461 294.26031905 -0.38676625 C302.18719249 -0.32387871 302.18719249 -0.32387871 306.1627636 2.03970528 C308.88255895 5.21340461 309.08215079 6.94393248 309.07797527 11.04428577 C309.08003727 12.60082119 309.08003727 12.60082119 309.08214092 14.18880177 C309.07854565 15.33175205 309.07495037 16.47470234 309.07124615 17.65228748 C309.07139217 18.85226871 309.0715382 20.05224995 309.07168865 21.28859425 C309.07111033 24.58384969 309.0660864 27.8790429 309.05911469 31.17428732 C309.05287403 34.61628283 309.05227679 38.05827913 309.05108929 41.50027943 C309.04797808 48.02030043 309.03976752 54.54030472 309.0297398 61.06031835 C309.01857214 68.48222846 309.01306656 75.90413935 309.00804436 83.32605577 C308.99758474 98.59545389 308.97998936 113.86483533 308.95772076 129.13422108 C309.56616833 129.19544147 310.1746159 129.25666187 310.80150127 129.31973743 C311.60473827 129.40401997 312.40797527 129.4883025 313.23555279 129.57513905 C314.42666164 129.69790714 314.42666164 129.69790714 315.64183331 129.8231554 C330.43639553 131.81033335 342.62497737 140.99122757 352.95772076 151.13422108 C353.65768169 151.80968983 354.35764263 152.48515858 355.07881451 153.18109608 C369.15967838 167.78347343 373.61356807 186.19720009 373.42647076 205.93011951 C372.82594744 226.60438584 364.25736873 244.12835451 349.50459576 258.52875233 C339.41749448 267.39271707 322.84862397 277.13422108 308.95772076 277.13422108 C308.95772076 285.05422108 308.95772076 292.97422108 308.95772076 301.13422108 C311.59772076 301.46422108 314.23772076 301.79422108 316.95772076 302.13422108 C319.44566119 302.65735633 321.92533432 303.22111085 324.39595318 303.82074451 C325.09134701 303.98842335 325.78674084 304.15610218 326.50320721 304.32886219 C328.77453586 304.87844952 331.04400864 305.43521093 333.31318951 305.99359608 C334.48434024 306.28073853 334.48434024 306.28073853 335.67915058 306.57368183 C339.80355904 307.58548887 343.92647696 308.60313383 348.04829693 309.62543201 C352.29473849 310.67733745 356.545987 311.70826974 360.79865837 312.73465061 C364.08133425 313.53103937 367.35997883 314.34313334 370.63773823 315.15949726 C372.20351475 315.54654215 373.77076952 315.92765869 375.33948612 316.30260944 C377.53338456 316.82850519 379.72062192 317.37653131 381.90767193 317.93011951 C383.77343128 318.38859272 383.77343128 318.38859272 385.67688274 318.85632801 C389.45002664 320.32597522 391.36259856 322.0596288 393.95772076 325.13422108 C395.09599847 328.15039475 395.24541548 330.93009159 394.95772076 334.13422108 C393.31046598 337.6187985 391.9805901 339.46204979 388.77022076 341.57172108 C379.77626101 343.37051303 369.90645149 339.53323358 361.20381451 337.31781483 C359.69223065 336.93758344 358.18051466 336.55787702 356.66867352 336.17866993 C352.71695937 335.1860008 348.76706468 334.18627485 344.817523 333.18500233 C340.77615027 332.16180296 336.73307455 331.14537931 332.69014263 330.1283617 C324.77766563 328.13689301 316.86710033 326.1379561 308.95772076 324.13422108 C307.22618081 337.30950253 306.13471246 350.48150823 305.58272076 363.75922108 C305.54167217 364.73976334 305.50062359 365.7203056 305.45833111 366.73056126 C304.51853982 393.163719 307.5796949 412.94237463 325.83450985 432.87428761 C338.64163712 446.40866195 353.07709343 458.66031588 367.90975666 469.91781521 C371.8574535 472.93368656 371.8574535 472.93368656 372.95772076 475.13422108 C373.60279995 480.34093169 373.87507306 483.95131943 370.58272076 488.19672108 C367.03391535 490.81607745 364.6361182 491.68073445 360.13911724 491.58992481 C357.49222011 491.03697586 356.41393218 490.16697219 354.43037701 488.34296131 C353.73492779 487.70389851 353.03947857 487.0648357 352.32295513 486.40640736 C347.49141335 481.76493797 342.74580256 477.04312922 338.02022076 472.29437733 C336.88844212 471.16072965 335.75643956 470.02730549 334.62422466 468.89409351 C331.66950065 465.93558257 328.71779422 462.97407926 325.76674175 460.01190662 C322.74500604 456.97987383 319.72037682 453.95073041 316.69600201 450.92133045 C310.7804327 444.99509141 304.86805347 439.06568265 298.95772076 433.13422108 C292.96640534 438.05259846 287.52555988 443.46120568 282.08007526 448.96726704 C280.44717696 450.6177449 278.81059761 452.26449188 277.17297649 453.91028309 C272.52242657 458.58513389 267.87770205 463.26574177 263.23726177 467.95062733 C260.38701145 470.82766305 257.53190546 473.69980547 254.67376041 476.56899738 C253.58941258 477.65954354 252.50696472 478.75198235 251.42648029 479.84635639 C249.91905527 481.37300806 248.40555983 482.89338971 246.89058208 484.41254139 C246.03233334 485.27824757 245.17408459 486.14395374 244.2898283 487.03589344 C240.37797355 490.55560803 237.36289052 491.68208193 231.99287701 491.50140858 C228.14121025 490.80648214 226.41615909 489.0723547 223.95772076 486.13422108 C222.89935633 483.05534274 222.43923366 480.35624804 222.95772076 477.13422108 C225.64927406 472.4997686 228.52812077 469.61420446 232.8119688 466.43353748 C234.00345402 465.52728982 235.19268099 464.61806758 236.37996197 463.70631886 C237.00557522 463.22637785 237.63118847 462.74643684 238.2757597 462.25195217 C272.38845635 435.81959203 272.38845635 435.81959203 289.26631737 397.74629307 C290.54565876 386.66104124 290.57070881 375.58291378 290.14522076 364.44672108 C290.0878002 362.94344635 290.0878002 362.94344635 290.02921963 361.40980244 C289.50414492 348.92993685 288.46985133 336.53181538 286.95772076 324.13422108 C285.6534589 324.47581005 285.6534589 324.47581005 284.32284832 324.82429981 C276.10331465 326.97404774 267.88003897 329.10870414 259.6522789 331.22675896 C255.42304604 332.3160402 251.19545199 333.41097336 246.97114849 334.51923084 C242.88972619 335.5897745 238.8046017 336.64493679 234.71653843 337.6898222 C233.16233948 338.08987941 231.60951957 338.49533655 230.05820179 338.90642452 C214.57010195 343.00347512 214.57010195 343.00347512 206.95772076 341.13422108 C204.03550422 338.68910112 202.36247219 336.95198865 201.52022076 333.16937733 C201.30585714 329.67926967 201.94101364 327.17994581 203.14522076 323.88422108 C210.39625259 316.79432328 224.43141361 315.65041434 234.08662701 313.24359608 C235.49340267 312.89075835 236.90013502 312.53774789 238.30682659 312.18457508 C241.22478767 311.45287358 244.14338588 310.72378531 247.06245708 309.99652576 C250.79943706 309.06517968 254.5344762 308.12628916 258.26906204 307.18539524 C261.16013045 306.45804638 264.05227903 305.73507139 266.94476414 305.0133791 C268.32341445 304.66875477 269.70170204 304.32267589 271.07960987 303.9750948 C272.99691496 303.49204997 274.91588318 303.01562098 276.83491802 302.53949451 C277.92377804 302.26732105 279.01263805 301.99514759 280.13449383 301.71472645 C282.95772076 301.13422108 282.95772076 301.13422108 286.95772076 301.13422108 C286.62772076 293.21422108 286.29772076 285.29422108 285.95772076 277.13422108 C283.77147076 276.61859608 281.58522076 276.10297108 279.33272076 275.57172108 C266.98731947 272.39618164 256.46280039 266.67849844 246.95772076 258.13422108 C246.04119732 257.35691639 246.04119732 257.35691639 245.10615826 256.56390858 C231.23315404 243.95784539 224.05716915 224.63790333 222.67256451 206.37250233 C222.22785591 187.86875757 227.36852107 170.65770749 238.95772076 156.13422108 C239.56358013 155.36465076 240.16943951 154.59508045 240.79365826 153.80218983 C250.82537599 141.78460144 266.43256171 132.05039585 281.95772076 129.13422108 C283.60772076 129.13422108 285.25772076 129.13422108 286.95772076 129.13422108 C286.95772076 93.82422108 286.95772076 58.51422108 286.95772076 22.13422108 C262.35774084 18.76865547 262.35774084 18.76865547 237.71943951 16.63031483 C227.48080238 16.00608316 217.36469596 15.30468035 207.23359966 13.65424061 C168.58349856 7.51825285 137.93967415 16.90691434 106.37852663 39.44498128 C61.0496943 72.37610065 13.22017444 117.10540174 3.74652386 174.60229969 C-2.78118431 218.06067171 -0.03535419 262.67198729 2.86906433 306.32501698 C3.79255797 320.36931642 4.39489584 334.40293023 4.79316998 348.47162342 C4.83597971 349.97906439 4.83597971 349.97906439 4.87965429 351.51695871 C5.02138125 356.56384526 5.15801584 361.61085445 5.29213047 366.65794849 C6.3936083 407.8659969 8.36211759 448.99480193 10.95772076 490.13422108 C11.90905895 490.12533863 12.86039715 490.11645618 13.84056377 490.10730457 C22.8154753 490.02614188 31.79031215 489.96621887 40.7655077 489.92697239 C45.37953926 489.90611682 49.99327405 489.87783646 54.60713482 489.83246326 C59.06160039 489.7889328 63.51578088 489.76506869 67.97044277 489.7547121 C69.66809227 489.74733363 71.36572655 489.73292502 73.06325436 489.71130085 C75.44524618 489.68217027 77.82606712 489.67826897 80.20820904 489.68011951 C80.90664425 489.66573841 81.60507946 489.65135731 82.32467937 489.63654041 C87.31380097 489.67835094 90.12440942 490.99993342 93.95772076 494.13422108 C96.42555235 497.83596847 96.63844808 500.83915583 95.95772076 505.13422108 C92.95772076 510.63422108 92.95772076 510.63422108 89.95772076 512.13422108 C87.58888254 512.24032712 85.24888196 512.28642427 82.87939739 512.28812122 C81.7734414 512.2946946 81.7734414 512.2946946 80.64514285 512.30140078 C78.16168648 512.31481091 75.6782656 512.32097257 73.1947813 512.32709217 C71.41936869 512.33499134 69.64395769 512.34326017 67.86854839 512.35187244 C62.02719441 512.378112 56.18583318 512.39340109 50.34443951 512.40765858 C48.3355315 512.41301729 46.32662355 512.41839479 44.31771564 512.42379093 C35.96318687 512.44542167 27.60866004 512.46415961 19.25411034 512.47541332 C7.270285 512.49166053 -4.7132165 512.52485482 -16.69691974 512.58181417 C-25.11735078 512.62047638 -33.53769506 512.64004155 -41.95821255 512.64533389 C-46.99038789 512.64899219 -52.02221798 512.66106433 -57.05429745 512.69343662 C-61.78791391 512.72345217 -66.52097507 512.72985245 -71.25466633 512.71805286 C-72.99253818 512.71783159 -74.73043531 512.72618125 -76.4682188 512.7437067 C-78.84048623 512.76632968 -81.21072825 512.75813749 -83.58300495 512.74222279 C-84.27133815 512.75610487 -84.95967134 512.76998696 -85.66886312 512.78428972 C-89.48374326 512.72119577 -90.96710538 512.19609005 -93.95550537 509.73660183 C-96.97136511 505.97557365 -97.47689625 502.88157611 -97.04227924 498.13422108 C-95.03567906 494.04670219 -93.31211804 491.69836798 -89.04227924 490.13422108 C-86.46636606 489.95424012 -84.00193143 489.88128436 -81.42802143 489.9071703 C-80.66665882 489.90687824 -79.90529621 489.90658619 -79.12086201 489.90628529 C-76.61017588 489.90767602 -74.09978838 489.92322503 -71.58915424 489.93890858 C-69.84609356 489.94263962 -68.10303077 489.94548616 -66.35996723 489.94748402 C-61.77651376 489.95511328 -57.19318743 489.97475571 -52.60978413 489.99689198 C-47.93104999 490.01736562 -43.25229528 490.02648898 -38.57352924 490.03656483 C-29.39639011 490.05800226 -20.21934526 490.0921297 -11.04227924 490.13422108 C-11.04379812 489.11199036 -11.04531701 488.08975965 -11.04688191 487.03655225 C-11.11354174 441.99662719 -11.17525507 396.95669806 -11.2116518 351.91673756 C-11.21220403 351.23511487 -11.21275626 350.55349219 -11.21332522 349.85121427 C-11.22529617 335.03858644 -11.236377 320.22595808 -11.24654056 305.4133289 C-11.25153001 298.14947579 -11.25671621 290.88562281 -11.26200581 283.62176991 C-11.26252884 282.89891984 -11.26305188 282.17606977 -11.26359076 281.43131515 C-11.28064358 257.99136767 -11.31069433 234.55145869 -11.34746813 211.11153455 C-11.38518177 187.02886675 -11.40981713 162.94622027 -11.4179392 138.86352344 C-11.41909186 135.4639151 -11.42039441 132.06430684 -11.42178822 128.6646986 C-11.42205791 127.99559088 -11.4223276 127.32648317 -11.42260546 126.63709946 C-11.42733683 115.85571104 -11.44590112 105.07438845 -11.46960738 94.2930269 C-11.49313202 83.46051954 -11.50183289 72.62808071 -11.49628475 61.79554901 C-11.49371434 55.92360605 -11.49774609 50.05185668 -11.51910114 44.17994785 C-11.53849224 38.80903878 -11.53959775 33.43845445 -11.52587482 28.06753077 C-11.52417748 26.11993809 -11.52931444 24.17232557 -11.54181197 22.22477225 C-11.55776937 19.58553548 -11.54927231 16.94748459 -11.53447056 14.30826759 C-11.54497861 13.54489947 -11.55548667 12.78153134 -11.56631315 11.99503085 C-11.50383792 7.09517157 -10.54644628 4.56708131 -7.04227924 1.13422108 C-4.52821538 -0.12281086 -2.81487733 0.005401 0 0 Z M10.95772076 22.13422108 C10.95772076 51.50422108 10.95772076 80.87422108 10.95772076 111.13422108 C16.58497101 106.34154386 16.58497101 106.34154386 21.91253948 101.30638599 C22.96191441 100.26124081 22.96191441 100.26124081 24.03248882 99.19498158 C24.77408245 98.45136372 25.51567608 97.70774586 26.27974224 96.94159412 C27.08055721 96.14253147 27.88137218 95.34346882 28.70645428 94.52019215 C31.33308301 91.89793877 33.95606807 89.27207581 36.57881451 86.64593983 C38.40712389 84.81830432 40.23558168 82.99081726 42.06418133 81.16347218 C45.88440764 77.34471664 49.70287526 73.52421514 53.51997662 69.70233631 C57.93698775 65.27986087 62.35762135 60.86103089 66.78010792 56.44403142 C71.03946254 52.18975025 75.29601398 47.93267721 79.55136585 43.67439175 C81.36203341 41.86305508 83.17344966 40.05246652 84.98561192 38.24262524 C87.50664785 35.72411201 90.02448473 33.20244488 92.54146099 30.67987537 C93.29722424 29.92613636 94.05298748 29.17239735 94.83165264 28.39581776 C95.51149715 27.71315342 96.19134167 27.03048908 96.89178753 26.32713795 C97.487392 25.73115645 98.08299646 25.13517496 98.69664955 24.52113342 C100.06984466 23.32332849 100.06984466 23.32332849 99.95772076 22.13422108 C70.58772076 22.13422108 41.21772076 22.13422108 10.95772076 22.13422108 Z M256.95772076 169.13422108 C246.97734809 182.46899286 244.52454607 196.89367455 245.95772076 213.13422108 C248.37250891 226.66690362 257.30441791 238.80896418 268.26631451 246.82172108 C280.77011668 254.82415447 294.12672997 257.51429061 308.68818951 254.92328358 C322.68426654 251.54549677 335.29591593 243.85619762 342.99922466 231.45795155 C350.91606931 217.61209116 353.42220288 203.62920268 349.39522076 187.88422108 C344.71127526 173.20121464 334.9563178 162.92153548 321.95772076 155.13422108 C298.64430903 144.44160367 274.14180923 150.57760157 256.95772076 169.13422108 Z " fill="#000000" transform="translate(107.04227924346924,-0.13422107696533203)"/>
</svg>
